HIERARCHY
ROOT Hips
{
	OFFSET -285.066589 92.472481 297.089996
	CHANNELS 6 Xposition Yposition Zposition Xrotation Yrotation Zrotation 
	JOINT RightUpLeg
	{
		OFFSET 0.103457 1.857824 10.548504
		CHANNELS 3 Xrotation Yrotation Zrotation
		JOINT RightLeg
		{
			OFFSET 43.500000 -0.000038 -0.000017
			CHANNELS 3 Xrotation Yrotation Zrotation
			JOINT RightFoot
			{
				OFFSET 42.372200 0.000011 0.000019
				CHANNELS 3 Xrotation Yrotation Zrotation
				JOINT RightToe
				{
					OFFSET 17.300011 0.000002 -0.000008
					CHANNELS 3 Xrotation Yrotation Zrotation
					End Site
					{
						OFFSET 0.000000 0.000000 0.000000
					}
				}
			}
		}
	}
	JOINT LeftUpLeg
	{
		OFFSET 0.103457 1.857822 -10.548492
		CHANNELS 3 Xrotation Yrotation Zrotation
		JOINT LeftLeg
		{
			OFFSET 43.500038 -0.000027 0.000036
			CHANNELS 3 Xrotation Yrotation Zrotation
			JOINT LeftFoot
			{
				OFFSET 42.372261 0.000015 0.000010
				CHANNELS 3 Xrotation Yrotation Zrotation
				JOINT LeftToe
				{
					OFFSET 17.299988 -0.000006 0.000008
					CHANNELS 3 Xrotation Yrotation Zrotation
					End Site
					{
						OFFSET 0.000000 0.000000 0.000000
					}
				}
			}
		}
	}
	JOINT Spine
	{
		OFFSET 6.901965 -2.603737 0.000006
		CHANNELS 3 Xrotation Yrotation Zrotation
		JOINT Spine1
		{
			OFFSET 12.588104 -0.000005 0.000007
			CHANNELS 3 Xrotation Yrotation Zrotation
			JOINT Spine2
			{
				OFFSET 12.343202 0.000026 -0.000008
				CHANNELS 3 Xrotation Yrotation Zrotation
				JOINT Neck
				{
					OFFSET 25.832890 -0.000029 -0.000007
					CHANNELS 3 Xrotation Yrotation Zrotation
					JOINT Head
					{
						OFFSET 11.766619 0.000021 0.000012
						CHANNELS 3 Xrotation Yrotation Zrotation
						End Site
						{
							OFFSET 0.000000 0.000000 0.000000
						}
					}
				}
				JOINT RightShoulder
				{
					OFFSET 19.745909 -1.480377 6.000106
					CHANNELS 3 Xrotation Yrotation Zrotation
					JOINT RightArm
					{
						OFFSET 11.284110 -0.000009 -0.000020
						CHANNELS 3 Xrotation Yrotation Zrotation
						JOINT RightForeArm
						{
							OFFSET 33.000053 0.000014 0.000021
							CHANNELS 3 Xrotation Yrotation Zrotation
							JOINT RightHand
							{
								OFFSET 25.200008 0.000006 -0.000004
								CHANNELS 3 Xrotation Yrotation Zrotation
								End Site
								{
									OFFSET 0.000000 0.000000 0.000000
								}
							}
						}
					}
				}
				JOINT LeftShoulder
				{
					OFFSET 19.746101 -1.480381 -6.000081
					CHANNELS 3 Xrotation Yrotation Zrotation
					JOINT LeftArm
					{
						OFFSET 11.284131 -0.000022 0.000003
						CHANNELS 3 Xrotation Yrotation Zrotation
						JOINT LeftForeArm
						{
							OFFSET 33.000095 0.000014 0.000005
							CHANNELS 3 Xrotation Yrotation Zrotation
							JOINT LeftHand
							{
								OFFSET 25.199774 0.000153 0.000423
								CHANNELS 3 Xrotation Yrotation Zrotation
								End Site
								{
									OFFSET 0.000000 0.000000 0.000000
								}
							}
						}
					}
				}
			}
		}
	}
}
MOTION
Frames: 15
Frame Time: 0.033333
4.212560 87.316849 422.917114 88.150626 -7.622619 -66.340944 -162.498970 -1.797899 179.187253 -38.830759 1.391531 5.421384 75.275986 -4.521742 -2.288102 21.454558 0.003109 0.000022 159.025874 -1.120502 -176.815853 -25.415043 3.303912 2.358037 71.228614 -3.095446 -4.009727 21.454550 -0.003089 0.000002 9.261020 0.805272 -1.326746 8.490822 1.705643 -2.591119 8.172933 1.689843 -2.601381 18.350439 -2.445824 0.093772 -17.604150 3.785411 -1.293041 166.681027 -73.450693 12.267943 -20.021750 52.894153 28.883634 -46.296672 -21.859185 2.118775 0.984297 -16.897601 10.616708 -156.373998 79.263293 25.550052 -11.201047 -60.391788 -42.221234 -26.183752 13.784510 -1.083509 5.964040 15.102798 2.907956 
3.323741 87.503891 418.679108 89.097215 -8.226521 -66.461060 -166.001273 -3.368505 177.211949 -48.273110 3.237837 5.743869 69.067139 -6.336145 -6.016366 21.454558 0.003110 0.000014 160.257289 -2.313201 -174.842297 -28.859458 3.335220 1.534779 74.329643 -2.843217 -5.542424 21.454553 -0.003094 -0.000001 9.310680 1.105063 -1.238727 8.586209 2.298907 -2.392554 8.268133 2.284289 -2.406383 18.714291 -2.319818 0.132310 -17.709147 3.526415 -1.152291 165.459967 -73.469005 13.516974 -19.458692 54.111767 29.210677 -43.603801 -21.250056 1.995997 2.297900 -17.443670 8.115054 -156.422014 79.490541 25.494992 -13.652034 -60.552045 -40.189905 -24.662148 13.599439 -1.047518 6.476807 12.528402 2.718720 
2.478864 87.830811 414.611786 89.805581 -8.630619 -66.484986 -170.746287 -4.714199 176.905397 -57.746162 4.277198 4.601571 62.452012 -8.201776 -11.183227 21.454562 0.003109 0.000009 162.148937 -3.386003 -173.767567 -30.722727 3.380419 1.180035 77.211908 -2.644578 -6.312863 21.454555 -0.003093 -0.000001 9.333762 1.284142 -1.102895 8.632596 2.646904 -2.107510 8.314359 2.634007 -2.123462 19.098167 -1.812421 -0.035565 -17.615586 3.410091 -1.282385 162.578979 -73.679006 16.457030 -18.728382 54.903752 30.444301 -40.931384 -20.512409 1.870675 3.403142 -17.567726 5.543831 -156.973033 79.796540 24.930086 -15.239211 -60.752163 -38.767799 -24.709898 14.086831 -1.079396 7.145139 10.664027 2.832770 
1.694635 88.214783 410.841614 90.504897 -8.993568 -66.488039 -175.909309 -5.864004 177.310905 -66.277348 4.523046 3.045034 61.612295 -7.516691 -11.948885 21.454562 0.003115 0.000017 164.424086 -4.659000 -173.385827 -31.348704 3.335023 1.235252 79.606128 -2.582725 -6.509969 21.454551 -0.003087 0.000001 9.379512 1.429859 -0.922767 8.726854 2.925174 -1.735650 8.408464 2.914501 -1.753296 19.596564 -1.233240 -0.302482 -17.935445 3.423899 -1.584236 161.661015 -73.732582 17.392930 -18.484666 54.823104 31.990181 -38.949202 -19.581765 1.756271 3.724553 -17.498757 4.912791 -158.120969 79.778017 23.764045 -16.681528 -60.260109 -37.581241 -25.940350 14.580466 -1.130423 7.247266 10.506848 2.836795 
0.892597 88.591591 407.168488 91.029838 -9.393931 -66.750004 178.998399 -6.407108 178.145281 -72.713989 4.178017 2.237121 67.624098 -5.414518 -9.911329 21.454563 0.003115 0.000017 166.975271 -5.895098 -173.504345 -31.507588 3.298493 1.344371 81.612100 -2.556496 -6.623326 21.454555 -0.003087 -0.000001 9.465008 1.509321 -0.716917 8.902682 3.069287 -1.316055 8.584185 3.061143 -1.334583 20.117689 -1.046604 -0.467025 -18.436967 3.800893 -1.918597 161.876959 -73.618231 17.177005 -18.127404 54.237757 33.946115 -37.483142 -18.868751 1.672193 3.557007 -17.517863 5.436788 -160.949938 79.838095 20.887939 -17.620416 -59.423752 -36.651813 -28.233693 15.129876 -1.204984 6.445926 11.788925 3.013543 
0.043693 88.985779 403.557800 91.518948 -9.659149 -67.386967 173.977035 -6.711306 178.413052 -76.115594 4.022741 1.216545 71.589193 -4.033937 -9.168145 21.454565 0.003119 0.000010 169.629442 -6.909398 -174.096987 -31.180268 3.604866 1.380463 82.889666 -2.601027 -7.052260 21.454553 -0.003084 0.000000 9.543645 1.545471 -0.489454 9.066104 3.124522 -0.856633 8.747541 3.119155 -0.875517 20.255394 -1.116459 -0.440623 -18.356343 3.975634 -1.950733 162.207991 -73.548700 16.842053 -17.373570 53.935501 35.617179 -36.220988 -18.636501 1.625904 3.486600 -17.188197 5.515436 -163.998019 80.427410 17.786019 -18.621589 -59.035135 -35.718181 -31.083668 16.081388 -1.320488 5.616114 14.305839 2.620907 
-0.876954 89.457573 400.019012 91.800406 -9.680480 -68.165035 169.292413 -6.577393 178.497008 -76.433833 3.738607 0.083880 73.899300 -2.596462 -7.849653 21.454562 0.003114 0.000013 172.384713 -7.473605 -174.359430 -30.373561 3.751133 1.043651 83.577569 -2.395580 -7.363308 21.454553 -0.003095 -0.000001 9.597294 1.507097 -0.291052 9.178827 3.032517 -0.461792 8.860253 3.029537 -0.480119 20.146394 -1.492189 -0.416613 -18.015329 4.210369 -1.992612 162.948984 -73.951107 16.066043 -16.695641 54.217003 36.536847 -35.324943 -18.465959 1.593404 3.457307 -16.883101 5.072374 -166.008048 81.154846 15.741950 -20.357613 -58.806822 -33.567190 -34.043889 16.942382 -1.438924 4.870289 15.792492 1.357030 
-1.846704 89.748413 396.566711 92.197807 -9.680832 -69.010012 165.307667 -6.438898 178.904320 -73.748974 3.317610 0.000612 77.231599 -1.835672 -6.285263 21.454563 0.003109 0.000020 174.919464 -8.060698 -174.723424 -29.807588 3.804319 0.731290 84.294834 -2.157033 -7.465397 21.454551 -0.003096 -0.000002 9.608510 1.472654 -0.102506 9.206082 2.948786 -0.087559 8.887525 2.948072 -0.105386 20.579707 -1.685107 -0.421586 -18.028858 4.169138 -1.972638 162.875956 -74.225503 16.128074 -15.217340 54.550573 37.248396 -35.053651 -18.368822 1.580744 3.800086 -17.093392 4.627145 -167.487071 81.654987 14.241925 -22.343825 -58.277004 -31.406200 -36.721231 17.507433 -1.537977 3.915515 16.928846 0.087893 
-2.902228 89.902611 393.083313 92.643217 -9.670207 -69.956061 161.946886 -6.262302 179.352271 -68.769541 3.172465 0.441986 80.232593 -1.911887 -6.100920 21.454555 0.003106 0.000017 177.593101 -8.630497 -175.731342 -29.021450 3.998229 0.662331 85.095264 -2.050584 -7.416565 21.454553 -0.003091 -0.000001 9.618706 1.458129 0.100685 9.231550 2.903586 0.317477 8.912998 2.905314 0.299915 20.637816 -1.899478 -0.479619 -17.920168 3.920424 -1.930635 163.035017 -74.359006 15.959982 -13.677638 54.737034 37.847413 -35.071573 -18.279246 1.575388 3.990548 -17.771645 4.273976 -167.722030 82.253694 14.003053 -24.585387 -57.804212 -29.117865 -39.186120 18.087053 -1.637688 2.805607 17.383878 -1.165263 
-3.970772 89.895897 389.561188 93.112868 -9.776764 -70.883048 159.708469 -6.330905 179.833212 -61.518817 2.829086 0.782904 82.421887 -2.077302 -6.429641 21.454560 0.003105 0.000014 -179.406694 -9.202190 -176.665220 -27.920285 4.091496 0.516149 85.985402 -1.888626 -7.386910 21.454553 -0.003101 -0.000002 9.651925 1.483024 0.282873 9.302835 2.938517 0.684292 8.984306 2.942463 0.666500 20.825230 -2.316094 -0.467619 -18.142150 3.852775 -1.886380 163.436045 -74.237893 15.555056 -11.977193 54.685240 38.482211 -35.368369 -18.170888 1.575394 3.995893 -18.204184 4.405953 -169.235968 82.707491 12.469949 -26.464278 -57.094869 -27.067688 -41.526321 18.710340 -1.741248 2.027171 17.770592 -2.760437 
-5.043994 89.851318 386.017303 93.436373 -9.640897 -71.816038 158.077803 -6.154096 179.652048 -52.575764 2.599640 0.236022 82.186314 -1.361210 -5.048441 21.454557 0.003116 0.000019 -176.313684 -9.482299 -177.596134 -26.367696 4.137513 0.329715 86.713807 -1.732223 -7.472286 21.454555 -0.003080 0.000001 9.640359 1.461957 0.449056 9.283585 2.883199 1.014265 8.965098 2.889139 0.996824 20.853249 -2.612361 -0.347366 -18.311556 3.925710 -1.782948 163.624012 -74.439998 15.354023 -10.474248 55.008373 39.008812 -35.763898 -18.186647 1.585826 3.694555 -18.383123 4.456501 -171.319955 82.840284 10.363022 -28.102170 -56.133934 -25.241316 -43.581142 19.023861 -1.820085 1.209776 19.211427 -3.874836 
-6.161053 89.728073 382.456512 93.801112 -9.349280 -72.862061 157.303013 -6.259897 178.516105 -42.218482 2.581249 -0.068499 80.756919 -1.133957 -4.797333 21.454558 0.003106 0.000016 -173.243404 -9.554198 -178.717159 -24.573161 4.316416 0.132512 87.174121 -1.607648 -7.658612 21.454551 -0.003086 0.000001 9.568515 1.436472 0.633775 9.143958 2.818396 1.379460 8.825535 2.826533 1.362411 20.772091 -2.811913 -0.251704 -18.223274 3.978113 -1.693403 163.647945 -74.969570 15.306030 -9.060450 55.745173 39.823275 -36.248886 -18.430861 1.613292 3.404883 -18.613119 4.621568 -173.003009 82.916564 8.661064 -29.481060 -55.281765 -23.753262 -45.098988 19.128879 -1.871799 0.771872 20.368000 -4.541676 
-7.281665 89.509903 378.774506 94.380107 -9.056057 -74.094001 157.560812 -6.672001 177.211580 -30.887242 1.849892 -0.287584 79.251190 -0.969405 -4.645903 21.454560 0.003106 0.000016 -170.091750 -9.659197 -179.535429 -22.618187 4.334275 -0.405725 87.208231 -1.266026 -7.767388 21.454555 -0.003089 -0.000002 9.451849 1.472885 0.845279 8.916323 2.876318 1.802073 8.597960 2.886995 1.784648 20.867319 -3.253707 -0.244186 -18.250349 3.862606 -1.627933 164.428950 -74.991516 14.508066 -7.344835 56.061448 41.034472 -37.047165 -18.711561 1.651090 3.126879 -18.917626 5.039871 -175.540028 83.068761 6.097065 -30.648804 -54.637163 -22.850543 -45.622580 19.462450 -1.909678 -0.096913 20.618179 -4.983762 
-8.417011 89.250877 375.016510 94.825750 -8.792650 -75.194946 158.304073 -7.051498 176.682418 -20.045227 0.626694 -0.139482 77.268052 -1.735040 -6.915898 21.454557 0.003109 0.000019 -166.595376 -9.590894 179.734570 -20.193046 4.239916 -0.937435 86.892301 -0.903825 -7.632535 21.454550 -0.003089 -0.000001 9.324806 1.510006 1.025504 8.667386 2.939033 2.161859 8.349082 2.951900 2.144057 21.010077 -4.047934 -0.240778 -18.320697 4.352010 -1.784493 165.305058 -74.757022 13.623052 -5.455839 56.172777 42.197561 -37.978478 -18.757533 1.677548 2.627302 -19.400968 5.433874 -177.672973 83.294341 3.943971 -31.604351 -54.345035 -22.235262 -45.523467 19.613151 -1.916658 -0.404788 20.880921 -4.939223 
-9.604246 88.776009 371.147614 95.263196 -8.614613 -76.209960 159.174581 -7.447393 177.349291 -11.754652 -0.800424 -0.053892 76.814035 -1.937546 -7.461960 21.454557 0.003113 0.000016 -163.134123 -9.463898 178.954617 -18.160513 4.103133 -1.394988 86.594566 -0.568920 -7.396145 21.454551 -0.003080 -0.000001 9.194872 1.526183 1.183663 8.411771 2.962405 2.475880 8.093513 2.977169 2.457943 20.928149 -4.636600 -0.181965 -18.071921 4.877452 -1.894565 165.792993 -74.797299 13.123029 -3.128115 56.476997 43.735095 -39.140850 -18.955725 1.720577 2.218127 -19.579106 6.046396 179.083967 83.435200 0.670019 -31.917976 -54.442068 -21.895408 -44.996801 19.368361 -1.884575 0.296441 20.878573 -4.226491 
